<?xml version="1.0" encoding="utf-8"?>
<!-- Generator: Adobe Illustrator 27.3.1, SVG Export Plug-In . SVG Version: 6.00 Build 0)  -->
<svg version="1.1" id="Layer_1" xmlns="http://www.w3.org/2000/svg" xmlns:xlink="http://www.w3.org/1999/xlink" x="0px" y="0px"
	 viewBox="0 0 58 58" style="enable-background:new 0 0 58 58;" xml:space="preserve">
<style type="text/css">
	.st0{fill:#0D2951;}
</style>
<path class="st0" d="M25.9,33.1h-4c-3.1,0-5.5-2.6-5.5-5.7c0-1.1,0.9-2,2-2s2,0.9,2,2c0,1,0.7,1.7,1.5,1.7h4c0.6,0,1.1-0.6,1.1-1.3
	c0-0.9-0.2-1-0.8-1.2l-6.4-2.2c-2.3-0.8-3.5-2.4-3.5-5c0-2.9,2.3-5.3,5.1-5.3h4c3.1,0,5.5,2.6,5.5,5.7c0,1.1-0.9,2-2,2
	c-1.1,0-2-0.9-2-2c0-1-0.7-1.7-1.5-1.7h-4c-0.6,0-1.1,0.6-1.1,1.3c0,0.9,0.2,1,0.8,1.2l6.4,2.2c2.3,0.8,3.4,2.5,3.4,5
	C31,30.8,28.7,33.1,25.9,33.1z"/>
<path class="st0" d="M23.7,35.2c-1.1,0-2-0.9-2-2v-2c0-1.1,0.9-2,2-2c1.1,0,2,0.9,2,2v2C25.7,34.4,24.8,35.2,23.7,35.2z"/>
<path class="st0" d="M23.7,18.2c-1.1,0-2-0.9-2-2v-2.1c0-1.1,0.9-2,2-2c1.1,0,2,0.9,2,2v2.1C25.7,17.3,24.8,18.2,23.7,18.2z"/>
<path class="st0" d="M23.6,46.9c-12.9,0-23.3-10.5-23.3-23.3c0-12.9,10.5-23.3,23.3-23.3c12.9,0,23.3,10.5,23.3,23.3
	C46.9,36.5,36.5,46.9,23.6,46.9z M23.6,4.3C13,4.3,4.3,13,4.3,23.6S13,42.9,23.6,42.9s19.3-8.7,19.3-19.3S34.3,4.3,23.6,4.3z"/>
<path class="st0" d="M42.4,57.6c-4.9,0-9.6-2.4-12.4-6.5c-0.6-0.9-0.4-2.2,0.5-2.8c0.9-0.6,2.2-0.4,2.8,0.5c2.1,3,5.5,4.7,9.1,4.7
	c6.2,0,11.2-5,11.2-11.2c0-3.6-1.8-7-4.7-9.1c-0.9-0.6-1.1-1.9-0.5-2.8c0.6-0.9,1.9-1.1,2.8-0.5c4,2.9,6.3,7.5,6.3,12.4
	C57.6,50.8,50.8,57.6,42.4,57.6z"/>
</svg>
