<?xml version="1.0" encoding="utf-8"?>
<!-- Generator: Adobe Illustrator 27.3.1, SVG Export Plug-In . SVG Version: 6.00 Build 0)  -->
<svg version="1.1" id="Layer_1" xmlns="http://www.w3.org/2000/svg" xmlns:xlink="http://www.w3.org/1999/xlink" x="0px" y="0px"
	 viewBox="0 0 58 58" style="enable-background:new 0 0 58 58;" xml:space="preserve">
<style type="text/css">
	.st0{fill:#0D2951;}
</style>
<path class="st0" d="M31.8,40.3h-5c-3.5,0-6.5-3-6.5-6.7c0-1.1,0.9-2,2-2c1.1,0,2,0.9,2,2c0,1.5,1.1,2.7,2.5,2.7h5
	c1,0,1.9-0.9,1.9-2.1c0-1.4-0.4-1.7-1.3-2l-8-2.8c-1.7-0.6-4-1.8-4-5.8c0-3.3,2.6-6.1,5.9-6.1h5c3.5,0,6.5,3,6.5,6.7
	c0,1.1-0.9,2-2,2s-2-0.9-2-2c0-1.5-1.1-2.7-2.5-2.7h-5c-1,0-1.9,0.9-1.9,2.1c0,1.4,0.4,1.7,1.3,2l8,2.8c1.7,0.6,4,1.8,4,5.8
	C37.7,37.6,35,40.3,31.8,40.3z"/>
<path class="st0" d="M29,43c-1.1,0-2-0.9-2-2V17c0-1.1,0.9-2,2-2c1.1,0,2,0.9,2,2v24C31,42.1,30.1,43,29,43z"/>
<path class="st0" d="M29,57.7C13.2,57.7,0.3,44.8,0.3,29C0.3,13.2,13.2,0.3,29,0.3c1.1,0,2,0.9,2,2c0,1.1-0.9,2-2,2
	C15.4,4.3,4.3,15.4,4.3,29S15.4,53.7,29,53.7S53.7,42.6,53.7,29c0-1.1,0.9-2,2-2s2,0.9,2,2C57.7,44.8,44.8,57.7,29,57.7z"/>
<path class="st0" d="M55.7,15c-1.1,0-2-0.9-2-2V4.3H45c-1.1,0-2-0.9-2-2c0-1.1,0.9-2,2-2h10.7c1.1,0,2,0.9,2,2V13
	C57.7,14.1,56.8,15,55.7,15z"/>
<path class="st0" d="M42.3,17.7c-0.5,0-1-0.2-1.4-0.6c-0.8-0.8-0.8-2.1,0-2.8L54.3,0.9c0.8-0.8,2.1-0.8,2.8,0c0.8,0.8,0.8,2.1,0,2.8
	L43.7,17.1C43.3,17.5,42.8,17.7,42.3,17.7z"/>
</svg>
