<?xml version="1.0" encoding="utf-8"?>
<!-- Generator: Adobe Illustrator 27.3.1, SVG Export Plug-In . SVG Version: 6.00 Build 0)  -->
<svg version="1.1" id="Layer_1" xmlns="http://www.w3.org/2000/svg" xmlns:xlink="http://www.w3.org/1999/xlink" x="0px" y="0px"
	 viewBox="0 0 58 58" style="enable-background:new 0 0 58 58;" xml:space="preserve">
<style type="text/css">
	.st0{fill:#0D2951;}
</style>
<path class="st0" d="M25.2,57.6c-2.9,0-5.8-0.8-8-2.5L5.7,46.5c-3-2.2-5.4-7-5.4-10.7V16c0-4.1,3-8.4,6.8-9.9l13.3-5
	c2.6-1,6.8-1,9.4,0l13.3,5c3.1,1.2,5.8,4.3,6.6,7.8c0.1,0.6,0,1.2-0.4,1.7c-0.4,0.5-1,0.8-1.6,0.8l-21.1,0c-3.4,0.2-4.2,0.8-4.2,5.7
	v14.5c0,5.1,0.7,5.7,5.8,5.7h15.8c0.8,0,1.6,0.5,1.9,1.3c0.3,0.8,0.1,1.7-0.5,2.2c-0.3,0.2-0.5,0.5-0.8,0.7l-11.4,8.6
	C30.9,56.7,28,57.6,25.2,57.6z M25.2,4.4c-1.2,0-2.4,0.2-3.3,0.5l-13.3,5c-2.2,0.9-4.2,3.7-4.2,6.1v19.8c0,2.5,1.8,6,3.8,7.5
	l11.4,8.5c3.1,2.3,8.2,2.3,11.3,0l7.4-5.5h-9.9c-7.4,0-9.8-2.5-9.8-9.7V22.1c0-5.7,1.4-9.3,8.1-9.7l1.7,0h16.4
	c-0.8-1.1-1.9-2.1-3-2.5l-13.3-5C27.6,4.6,26.4,4.4,25.2,4.4z"/>
<path class="st0" d="M55.7,28.9H20.5c-1.1,0-2-0.9-2-2c0-1.1,0.9-2,2-2h35.2c1.1,0,2,0.9,2,2C57.7,28,56.8,28.9,55.7,28.9z"/>
<path class="st0" d="M47.8,46.3H28.3c-7.4,0-9.8-2.5-9.8-9.7V22.1c0-5.7,1.4-9.3,8.1-9.7l1.7,0h19.5c7.4,0,9.8,2.5,9.8,9.7v14.8
	C57.6,44,55.1,46.3,47.8,46.3z M28.3,16.4l-1.6,0c-3.4,0.2-4.2,0.8-4.2,5.7v14.5c0,5.1,0.7,5.7,5.8,5.7h19.5c5.1,0,5.8-0.7,5.8-5.4
	V22.1c0-5.1-0.7-5.7-5.8-5.7L28.3,16.4L28.3,16.4z"/>
<path class="st0" d="M30.7,39.7h-3.6c-1.1,0-2-0.9-2-2c0-1.1,0.9-2,2-2h3.6c1.1,0,2,0.9,2,2C32.7,38.8,31.9,39.7,30.7,39.7z"/>
<path class="st0" d="M45.1,39.7h-8.7c-1.1,0-2-0.9-2-2c0-1.1,0.9-2,2-2h8.7c1.1,0,2,0.9,2,2C47.1,38.8,46.2,39.7,45.1,39.7z"/>
</svg>
