<?xml version="1.0" encoding="utf-8"?>
<!-- Generator: Adobe Illustrator 27.3.1, SVG Export Plug-In . SVG Version: 6.00 Build 0)  -->
<svg version="1.1" id="Layer_1" xmlns="http://www.w3.org/2000/svg" xmlns:xlink="http://www.w3.org/1999/xlink" x="0px" y="0px"
	 viewBox="0 0 91 78" style="enable-background:new 0 0 91 78;" xml:space="preserve">
<style type="text/css">
	.st0{fill:#0D2951;}
</style>
<path class="st0" d="M51.8,27.5H3.8c-1.7,0-3.1-1.4-3.1-3.1s1.4-3.1,3.1-3.1h47.9c1.7,0,3.1,1.4,3.1,3.1S53.5,27.5,51.8,27.5z"/>
<path class="st0" d="M28.8,60.9h-8.3c-1.7,0-3.1-1.4-3.1-3.1s1.4-3.1,3.1-3.1h8.3c1.7,0,3.1,1.4,3.1,3.1S30.5,60.9,28.8,60.9z"/>
<path class="st0" d="M55.9,60.9H39.3c-1.7,0-3.1-1.4-3.1-3.1s1.4-3.1,3.1-3.1h16.7c1.7,0,3.1,1.4,3.1,3.1S57.6,60.9,55.9,60.9z"/>
<path class="st0" d="M68.7,77.5H22.3c-16.6,0-21.6-5-21.6-21.4V21.9c0-16.4,5-21.4,21.6-21.4h29.4c1.7,0,3.1,1.4,3.1,3.1
	c0,1.7-1.4,3.1-3.1,3.1H22.3C9.3,6.7,7,9,7,21.9v34.2C7,69,9.3,71.2,22.3,71.2h46.3C81.7,71.2,84,69,84,56.1v-17
	c0-1.7,1.4-3.1,3.1-3.1c1.7,0,3.1,1.4,3.1,3.1v17C90.3,72.5,85.3,77.5,68.7,77.5z"/>
<path class="st0" d="M87.2,18.2H64.3c-1.7,0-3.1-1.4-3.1-3.1s1.4-3.1,3.1-3.1h22.9c1.7,0,3.1,1.4,3.1,3.1S88.9,18.2,87.2,18.2z"/>
<path class="st0" d="M75.7,29.6c-1.7,0-3.1-1.4-3.1-3.1V3.6c0-1.7,1.4-3.1,3.1-3.1c1.7,0,3.1,1.4,3.1,3.1v22.9
	C78.8,28.2,77.4,29.6,75.7,29.6z"/>
</svg>
